<svg xmlns="http://www.w3.org/2000/svg" viewBox="0 0 32 32">
  <rect width="32" height="32" rx="4" fill="#fff"/>
  <!-- CETEN hexagon monogram -->
  <g transform="translate(16,16)">
    <!-- Left navy C band (outer hex left half) -->
    <path d="M-10,-4 L-10,4 L-4,10 L-2,8 L0,10 L2,8 L-4,2 L-4,-4 L-2,-6 L0,-4 L2,-6 L-4,-10 L-4,-2 Z" fill="#1a2a5e"/>
    <!-- Right green E band (outer hex right half with notches) -->
    <path d="M0,10 L2,8 L4,10 L10,4 L10,-4 L4,-10 L2,-8 L0,-10 L0,-6 L-2,-4 L0,-2 L6,-4 L6,4 L0,2 L-2,4 Z" fill="#4ade80"/>
  </g>
</svg>
